<?xml version="1.0" standalone="no"?>
<!DOCTYPE svg PUBLIC "-//W3C//DTD SVG 20010904//EN"
 "http://www.w3.org/TR/2001/REC-SVG-20010904/DTD/svg10.dtd">
<svg version="1.0" xmlns="http://www.w3.org/2000/svg"
 width="400.000000pt" height="400.000000pt" viewBox="0 0 400.000000 400.000000"
 preserveAspectRatio="xMidYMid meet">
<metadata>
Created by potrace 1.14, written by Peter Selinger 2001-2017
</metadata>
<g transform="translate(0.000000,400.000000) scale(0.100000,-0.100000)"
fill="#000000" stroke="none">
<path d="M0 3460 l0 -540 480 0 c470 0 480 0 480 20 0 17 -8 20 -82 23 l-83 3
83 2 c65 2 82 5 82 17 0 8 5 15 10 15 6 0 10 -6 10 -14 0 -9 13 -16 33 -19
l32 -4 -32 -1 c-25 -2 -33 -7 -33 -21 0 -15 8 -21 33 -23 31 -3 32 -4 30 -48
0 -25 1 -34 4 -20 2 14 14 33 26 43 21 17 21 18 2 15 -17 -3 -20 2 -19 35 1
20 -3 37 -7 37 -12 0 -11 31 1 50 8 12 12 12 18 2 5 -7 16 -10 25 -6 22 8 22
-4 0 -28 -9 -10 -13 -21 -10 -24 7 -7 37 14 37 26 0 4 20 44 45 89 28 50 42
87 38 98 -5 16 -4 16 9 -1 14 -17 15 -17 33 10 10 16 27 35 37 42 10 7 16 18
12 23 -3 5 -2 8 3 7 14 -5 83 54 76 65 -3 5 -1 7 4 4 6 -4 36 12 67 34 49 35
55 43 44 57 -12 13 -11 14 7 3 17 -11 26 -10 59 9 28 17 34 25 24 32 -8 5 -2
6 17 2 27 -7 29 -6 17 9 -11 13 -10 15 6 10 11 -2 51 8 88 25 102 43 122 50
194 67 73 17 240 20 183 4 -18 -5 -32 -13 -30 -18 1 -4 -22 -29 -50 -55 -62
-56 -72 -52 -13 4 31 29 36 39 24 44 -8 3 -13 2 -10 -3 3 -5 -7 -17 -22 -27
-15 -9 -42 -33 -61 -53 l-33 -36 36 47 c29 37 32 45 16 41 -11 -3 -20 -10 -20
-15 0 -6 -7 -8 -15 -4 -18 7 -31 -7 -100 -99 l-15 -20 7 20 c3 11 15 31 25 44
24 32 14 41 -11 10 -13 -15 -20 -19 -21 -10 -1 37 -56 -45 -71 -104 l-7 -30
-1 30 c0 17 6 41 14 55 21 37 18 46 -6 16 -12 -15 -27 -51 -34 -79 -10 -40
-13 -45 -13 -22 -1 17 5 48 13 70 l14 40 -19 -23 c-11 -13 -22 -40 -25 -60 -4
-20 -11 -55 -15 -77 -8 -34 -8 -31 -4 19 3 32 8 70 10 85 l4 26 -15 -27 c-8
-15 -19 -57 -24 -95 l-8 -68 -2 57 c0 31 4 69 10 85 5 15 6 24 1 18 -16 -18
-32 -77 -33 -124 l-1 -46 -14 50 -13 50 4 -80 c2 -46 12 -105 24 -139 12 -33
19 -61 17 -63 -8 -8 -46 116 -56 182 -15 94 -24 97 -18 5 4 -55 15 -100 43
-168 20 -52 41 -124 45 -160 l8 -67 -1 77 c-1 42 1 74 6 71 4 -2 7 -37 7 -76
0 -40 4 -78 9 -86 6 -10 9 7 10 48 0 35 2 66 5 69 4 3 6 -19 6 -48 0 -50 1
-52 15 -34 12 16 16 17 24 5 7 -11 10 -7 13 15 2 18 10 30 21 32 10 2 17 0 16
-5 -1 -4 1 -21 6 -36 9 -33 1 -45 -20 -27 -12 10 -15 9 -16 -6 -1 -11 -1 -25
0 -31 1 -7 -4 -13 -11 -13 -8 0 -14 -16 -15 -45 -2 -34 2 -45 12 -45 21 0 19
-9 -7 -31 -19 -15 -20 -18 -6 -19 9 0 20 5 23 10 9 14 36 12 33 -2 -5 -20 -22
-36 -32 -30 -5 3 -7 -2 -3 -11 4 -11 1 -17 -7 -17 -16 0 -56 63 -56 86 0 8 -4
13 -9 9 -6 -3 -12 12 -14 32 -2 21 -2 9 0 -27 2 -35 1 -61 -3 -58 -3 4 -12 77
-20 163 -12 136 -18 168 -48 243 -19 48 -37 110 -41 137 -11 74 -24 100 -24
50 -1 -50 17 -117 57 -216 23 -59 33 -104 41 -195 6 -66 14 -141 17 -169 4
-27 4 -47 0 -44 -3 3 -13 68 -21 145 -20 182 -23 197 -57 278 -39 96 -50 142
-50 211 l0 60 -9 -55 c-11 -68 0 -123 46 -237 38 -94 55 -178 54 -258 -1 -38
-4 -26 -14 50 -12 95 -22 131 -75 270 -13 33 -26 92 -30 130 l-7 70 -2 -78
c-1 -71 3 -88 39 -175 43 -102 64 -204 74 -356 10 -141 -4 -94 -19 67 -13 133
-18 156 -61 264 -25 65 -50 145 -55 178 -7 56 -8 54 -5 -25 3 -69 2 -79 -6
-50 -17 60 -18 63 -23 59 -8 -9 26 -145 45 -176 52 -88 87 -321 63 -426 -6
-27 -8 0 -8 95 -1 148 -9 188 -67 326 -22 51 -43 120 -47 155 -7 49 -9 54 -10
22 -1 -54 20 -132 65 -240 33 -81 38 -101 42 -201 3 -71 0 -130 -8 -165 -7
-30 -16 -115 -20 -189 l-7 -135 -1 111 c-1 69 4 144 14 195 25 127 15 261 -27
364 -17 44 -40 103 -50 130 -10 28 -18 42 -19 33 0 -10 18 -66 41 -125 57
-150 67 -248 40 -386 -11 -56 -22 -118 -24 -137 -4 -34 -4 -33 -5 6 -1 23 5
77 14 120 12 55 15 110 12 184 -4 96 -8 113 -47 203 -23 54 -46 115 -51 135
l-10 37 5 -41 c3 -22 20 -79 39 -125 62 -155 71 -252 34 -385 -18 -65 -22
-108 -22 -236 -1 -97 -4 -148 -9 -135 -17 43 -1 295 24 390 21 80 22 94 12
176 -8 63 -23 115 -52 182 -50 117 -54 100 -5 -24 46 -115 58 -253 29 -334
-10 -26 -23 -77 -31 -113 l-13 -65 4 60 c2 33 14 87 25 120 30 84 23 189 -20
308 -18 48 -34 86 -37 83 -2 -2 9 -47 26 -100 39 -121 43 -243 11 -306 -11
-22 -20 -47 -21 -57 0 -11 -3 -13 -6 -5 -3 7 5 37 17 67 33 82 26 186 -25 337
-21 65 -41 116 -43 113 -2 -2 5 -32 16 -67 38 -116 51 -182 53 -269 2 -77 -1
-91 -23 -131 -15 -24 -29 -60 -33 -81 -4 -20 -11 -37 -15 -37 -12 0 11 80 37
129 40 76 29 197 -36 396 -28 85 -43 111 -21 35 38 -128 59 -227 64 -307 3
-51 2 -94 -3 -97 -4 -3 -11 38 -14 92 -5 93 -38 251 -59 282 -7 12 -8 11 -3
-5 24 -76 45 -197 47 -282 2 -56 7 -98 12 -96 5 3 7 0 4 -8 -3 -8 -10 -14 -17
-14 -15 0 -71 -64 -71 -81 0 -8 -5 -14 -10 -14 -12 0 24 75 40 85 19 12 -3
259 -31 345 -10 32 -1 -50 12 -101 15 -59 21 -237 8 -245 -6 -3 -24 -27 -40
-52 -30 -48 -40 -42 -14 8 22 43 10 37 -22 -11 -15 -23 -30 -62 -34 -88 -6
-44 -6 -44 -8 -9 0 20 8 58 19 85 l20 48 -30 -35 c-17 -19 -31 -43 -31 -55 -1
-16 -2 -16 -6 -3 -2 9 1 26 7 37 7 14 7 21 1 21 -12 0 -35 -43 -45 -84 -4 -15
-14 -35 -21 -43 -18 -18 -18 -84 0 -138 10 -32 13 -35 14 -16 2 43 17 9 29
-64 6 -39 18 -86 27 -105 l16 -35 -6 40 c-4 35 -2 32 20 -25 38 -96 45 -93 23
12 -16 76 -47 280 -48 311 0 5 4 6 9 3 4 -3 11 -42 15 -87 10 -118 44 -289 66
-326 12 -20 15 -33 8 -35 -6 -2 -4 -11 6 -21 16 -15 16 -18 2 -23 -20 -8 -21
-24 -1 -24 8 0 19 -8 24 -19 8 -14 6 -24 -9 -41 -12 -14 -17 -27 -11 -34 13
-16 5 -45 -18 -70 -25 -26 -57 -99 -65 -146 -5 -28 -2 -25 13 16 28 75 45 105
86 147 23 23 43 36 52 33 8 -3 21 -6 29 -6 8 0 14 -7 14 -15 0 -8 5 -15 12
-15 6 0 8 -3 5 -7 -4 -3 2 -13 14 -21 11 -8 18 -20 15 -27 -2 -7 1 -18 7 -24
8 -8 8 -11 -1 -11 -6 0 -9 -7 -6 -15 4 -9 13 -13 24 -10 22 7 70 -11 70 -25 0
-6 -4 -8 -10 -5 -5 3 -10 2 -10 -4 0 -19 23 -24 32 -7 10 17 38 22 38 7 0 -5
-13 -19 -30 -31 -19 -13 -30 -17 -30 -9 0 7 -3 9 -6 6 -4 -4 -2 -12 4 -19 5
-7 12 -33 15 -58 12 -97 17 -110 46 -111 14 0 20 -3 14 -6 -16 -6 -17 -53 -2
-53 5 0 8 -4 5 -9 -3 -5 2 -8 12 -7 12 1 17 -7 18 -24 1 -14 2 -27 3 -30 1 -3
4 -20 6 -38 1 -19 8 -39 14 -45 18 -18 13 -27 -14 -27 l-26 0 23 -42 c24 -44
54 -78 70 -78 5 0 6 4 3 10 -3 5 -1 10 5 10 6 0 15 -11 20 -25 5 -14 15 -27
22 -29 7 -2 29 -9 48 -15 19 -7 42 -13 50 -14 8 -1 21 -9 27 -18 7 -9 55 -33
106 -53 112 -43 167 -88 167 -135 0 -19 -6 -34 -15 -38 -9 -3 -54 13 -101 36
-47 22 -89 41 -94 41 -5 0 -25 14 -44 30 -18 17 -51 37 -72 46 -22 9 -46 22
-54 29 -8 6 -39 20 -68 31 -46 16 -54 16 -62 4 -6 -10 -5 -16 2 -19 7 -2 14 1
16 8 2 6 8 9 13 6 13 -8 -13 -33 -29 -28 -8 4 -10 -1 -6 -13 5 -15 4 -16 -4
-5 -6 8 -9 28 -7 45 3 31 3 31 -8 6 -7 -14 -20 -34 -29 -44 -21 -23 -23 -54
-4 -78 14 -19 32 -25 21 -8 -3 5 -1 10 4 10 6 0 11 -6 11 -13 0 -12 104 -87
121 -87 5 0 9 5 9 10 0 6 5 10 11 10 5 0 8 -4 5 -9 -8 -13 20 -33 41 -29 31 6
20 31 -17 41 -19 5 -42 15 -51 23 -8 7 -29 19 -46 25 -36 12 -47 32 -33 60 6
11 8 24 5 29 -4 6 3 6 20 0 35 -13 38 -13 32 4 -3 8 1 17 10 20 12 5 14 1 9
-17 -4 -19 0 -27 20 -38 15 -7 32 -14 38 -14 6 0 29 -10 51 -22 22 -11 45 -22
50 -23 6 0 51 -21 102 -46 50 -24 96 -44 102 -44 22 0 21 -23 -4 -65 -39 -68
-62 -79 -143 -71 -69 7 -152 37 -152 55 0 6 -7 11 -16 11 -9 0 -33 9 -53 20
-20 11 -70 35 -111 53 -73 33 -204 112 -233 142 -13 12 -16 12 -20 -7 -5 -19
-8 -20 -23 -8 -14 12 -18 12 -31 -5 -9 -12 -13 -14 -11 -5 6 19 -15 40 -40 40
-15 0 -21 -9 -26 -38 -9 -54 -8 -80 3 -64 7 11 9 11 14 -2 5 -12 0 -16 -22
-16 -31 0 -53 32 -66 100 -11 58 -26 100 -36 100 -14 0 -11 -52 7 -104 14 -41
14 -50 3 -57 -23 -14 -137 -11 -162 6 -12 8 -43 21 -67 30 -43 14 -44 14 -25
-2 12 -10 30 -35 40 -55 10 -20 23 -35 27 -32 4 3 8 -7 8 -21 0 -20 -4 -26
-15 -21 -8 3 -27 -1 -42 -9 -16 -8 -49 -24 -76 -35 -26 -12 -47 -26 -47 -31 0
-14 16 -11 31 7 7 8 21 13 31 10 11 -2 41 6 68 20 50 25 90 31 90 14 0 -5 -25
-24 -56 -42 l-56 -31 28 -15 28 -15 -31 -26 c-31 -26 -46 -54 -36 -65 3 -3 26
12 49 34 41 38 74 51 74 31 0 -5 -14 -22 -30 -38 -52 -48 -62 -78 -66 -198 -1
-60 -8 -126 -13 -145 -6 -19 -11 -36 -11 -37 0 -1 151 -2 335 -3 l336 0 15 35
c8 19 18 35 23 35 15 0 21 -30 11 -50 -10 -18 4 -19 434 -19 348 -1 445 2 449
11 4 10 6 10 6 1 1 -15 47 -17 56 -3 4 7 13 6 27 -1 16 -9 23 -8 29 2 17 26 9
39 -46 75 -30 20 -55 40 -55 45 0 4 -14 7 -32 6 -26 -2 -33 2 -39 24 -6 25 -4
27 39 33 34 4 50 2 62 -9 16 -14 18 -13 25 17 7 33 7 33 15 8 8 -25 8 -25 9
-2 1 13 6 20 11 17 6 -3 10 1 10 11 0 14 -7 16 -40 11 -50 -6 -84 22 -75 63 6
30 -8 59 -20 40 -6 -9 -13 -2 -25 21 -11 21 -30 37 -51 44 -18 6 -34 16 -36
21 -5 17 23 43 52 48 42 8 51 21 38 57 -8 21 -9 39 -1 60 12 34 9 39 -20 42
-20 1 -19 27 1 27 6 0 -4 13 -23 29 -28 24 -33 32 -22 42 10 11 18 6 43 -24
17 -20 35 -35 40 -32 5 4 9 2 9 -3 0 -13 71 -44 115 -49 21 -2 44 -7 50 -10 5
-2 0 4 -11 14 -12 10 -27 28 -33 41 -7 14 -20 22 -30 20 -10 -2 -19 2 -20 7
-1 6 8 11 19 11 22 1 54 35 41 44 -12 8 -19 60 -9 66 5 3 8 50 7 105 -3 127
14 146 41 47 17 -61 34 -87 47 -73 8 9 5 23 -12 54 -23 39 -23 41 -5 41 17 0
18 3 8 25 -6 14 -17 25 -25 25 -7 0 -13 4 -13 9 0 17 25 19 42 4 15 -14 18
-13 23 10 5 18 15 26 36 29 45 7 54 -19 28 -84 -11 -29 -18 -64 -16 -78 3 -14
1 -45 -4 -70 -23 -104 -29 -163 -34 -310 -3 -88 -1 -168 5 -185 5 -16 12 -64
14 -105 2 -41 5 -78 5 -81 2 -16 50 -61 59 -55 6 3 13 2 17 -4 3 -6 0 -13 -8
-16 -22 -8 -30 -53 -16 -86 l11 -28 162 0 c88 0 156 4 149 8 -7 4 -9 13 -4 21
7 10 12 8 25 -10 9 -13 16 -18 16 -12 0 7 -4 15 -10 18 -5 3 -10 11 -10 17 0
7 14 -1 31 -18 19 -18 28 -22 24 -11 -4 9 -3 17 3 17 5 0 12 -7 16 -15 3 -8
10 -15 16 -15 7 0 7 7 -1 22 -11 21 -11 22 4 9 11 -9 17 -10 17 -2 0 17 18 13
50 -11 16 -12 32 -19 35 -16 3 3 -14 18 -37 33 -34 23 -53 29 -92 27 -42 -2
-47 0 -36 13 13 15 5 39 -11 30 -5 -3 -29 -9 -54 -12 l-46 -5 3 40 c2 25 7 38
14 35 19 -7 54 39 61 80 4 26 9 34 14 25 14 -22 9 5 -5 32 -11 19 -12 30 -3
45 6 11 10 30 8 42 -2 17 4 24 24 29 17 4 23 9 15 14 -8 5 -3 10 14 14 14 3
26 11 26 16 0 9 -23 7 -61 -5 -14 -5 -19 -2 -19 11 0 13 -5 11 -21 -10 -19
-24 -68 -39 -54 -16 3 6 -1 10 -9 10 -8 0 -18 5 -22 11 -4 8 1 9 17 4 13 -4
21 -4 17 0 -4 4 -1 20 7 35 12 24 12 27 -3 27 -9 0 -25 -6 -34 -14 -18 -16
-38 -10 -38 11 0 7 9 25 21 40 14 18 20 37 17 56 -5 35 -7 34 27 18 22 -10 28
-9 41 10 8 12 30 28 47 36 18 8 41 20 51 28 18 14 17 15 -12 10 -18 -2 -30 -8
-27 -12 3 -5 -7 -7 -22 -5 -16 2 -31 4 -36 4 -4 1 0 12 9 26 9 14 20 22 25 19
5 -3 9 0 9 6 0 6 4 9 10 5 15 -9 28 57 16 78 -9 14 -7 21 7 31 9 7 17 23 17
35 0 11 5 21 12 21 9 0 9 3 0 12 -17 17 -15 29 3 22 32 -13 13 40 -40 111 -60
80 -68 85 -127 85 -37 0 -40 -2 -34 -23 3 -13 2 -36 -2 -51 l-8 -29 -34 37
c-29 30 -41 36 -80 37 l-45 2 55 7 c30 4 69 15 87 24 28 15 130 30 118 18 -3
-3 5 -10 17 -16 21 -11 77 -80 100 -123 6 -13 17 -23 24 -23 7 0 15 -8 17 -17
4 -15 5 -15 6 2 0 11 9 27 19 34 19 13 21 32 7 64 -5 11 -3 23 5 30 10 9 11 9
6 -1 -5 -8 1 -21 15 -33 26 -23 36 -25 19 -4 -10 13 -9 15 9 15 19 0 21 4 15
23 -7 22 -6 22 15 3 11 -11 21 -14 21 -9 0 6 -7 16 -16 24 -14 12 -14 14 2 26
13 10 21 10 33 1 9 -7 7 -2 -4 9 -26 28 -95 40 -95 17 0 -13 -3 -14 -15 -4 -8
7 -22 10 -30 6 -22 -8 -18 4 9 29 24 22 28 23 126 10 25 -4 40 -3 34 2 -7 4
-14 17 -16 28 -2 11 -10 18 -19 16 -38 -9 -54 -5 -54 14 0 16 -6 19 -29 17
-20 -3 -27 0 -24 10 3 8 17 12 34 10 24 -2 26 0 12 8 -10 6 -28 10 -40 9 -46
-4 -68 1 -68 16 0 16 -16 20 -24 7 -7 -12 -71 -8 -71 4 0 5 10 8 22 6 12 -1
24 2 28 7 3 6 12 8 20 5 10 -4 12 0 8 15 -4 17 -8 19 -19 10 -13 -10 -18 -6
-16 12 1 4 -24 5 -56 4 -31 -2 -62 1 -69 7 -7 5 -21 7 -33 3 -24 -8 -26 3 -4
33 16 23 35 26 36 7 0 -6 9 -16 20 -24 17 -11 21 -11 33 5 15 21 4 34 -28 34
-10 0 -15 5 -12 10 3 6 -5 14 -18 19 -14 6 -27 13 -29 18 -3 4 -3 2 -2 -4 2
-7 -4 -13 -12 -13 -11 0 -13 6 -9 20 7 22 -8 27 -25 7 -6 -6 -31 -54 -56 -106
-43 -90 -66 -118 -43 -53 6 17 9 39 7 49 -2 10 -10 -11 -17 -47 -16 -80 -20
-94 -26 -88 -3 3 2 40 10 84 8 43 15 81 15 84 0 3 -9 -15 -20 -39 -27 -59 -36
-47 -10 13 18 44 41 198 27 185 -4 -3 -9 -34 -13 -70 -6 -64 -28 -127 -58
-164 -10 -12 -6 3 9 39 28 63 48 209 34 238 -22 43 2 53 26 11 14 -23 15 -24
11 -5 -3 12 -9 31 -12 42 -4 12 -2 20 5 20 6 0 11 -4 11 -10 0 -5 4 -10 10
-10 5 0 7 13 4 30 -4 20 -2 30 5 30 8 0 10 8 6 19 -3 11 -1 22 5 26 6 4 9 13
6 20 -3 8 -1 29 4 46 7 23 6 35 -2 40 -6 4 -8 15 -4 25 4 10 1 21 -6 25 -10 7
-11 12 0 29 18 29 15 36 -7 16 -26 -24 -38 -3 -16 30 9 14 14 28 12 31 -3 2
-10 -5 -17 -16 -6 -12 -17 -21 -25 -21 -19 0 -18 10 0 34 8 11 15 27 15 35 0
9 -9 2 -21 -16 -12 -18 -25 -33 -30 -33 -11 0 -6 34 7 52 19 24 22 43 14 103
l-7 60 -2 -65 c-1 -65 -14 -99 -49 -127 -14 -11 -13 -16 11 -41 29 -30 36 -69
13 -78 -11 -4 -12 -12 -4 -34 10 -31 1 -58 -35 -97 -21 -24 -18 -39 14 -84 19
-25 -15 -67 -65 -80 -44 -12 -134 -6 -196 12 -67 20 -75 78 -11 80 14 0 35 4
46 9 17 7 16 9 -10 9 -16 0 -39 -4 -50 -8 -23 -9 -90 6 -123 27 -17 11 -22 23
-20 46 3 30 6 31 58 38 63 8 75 11 113 26 15 7 31 11 35 10 4 -1 16 3 27 9 11
6 23 12 27 12 4 1 27 11 50 21 35 16 38 20 19 20 -14 0 -39 5 -57 12 -29 10
-33 16 -32 44 1 23 8 36 25 45 14 7 27 26 30 41 8 42 24 45 19 4 -6 -50 17
-47 33 4 6 21 16 42 21 45 14 9 12 -10 -4 -50 -8 -19 -12 -35 -7 -35 12 0 31
23 31 40 1 21 28 55 37 46 4 -4 -2 -26 -15 -48 -12 -23 -20 -43 -17 -46 9 -9
31 17 45 53 7 19 17 35 22 35 4 0 7 30 7 66 -1 36 -3 63 -5 61 -3 -2 -9 -31
-14 -63 l-9 -59 3 78 c2 42 1 75 -1 73 -3 -2 -13 -31 -24 -63 l-19 -58 5 45
c3 25 12 63 20 85 26 74 14 131 -47 217 -15 22 -17 31 -8 45 10 16 11 16 6 1
-2 -9 2 -22 9 -28 12 -10 17 -7 25 15 5 14 10 33 10 42 0 9 6 13 15 9 8 -3 15
-1 15 4 0 6 -22 10 -50 10 -27 0 -50 3 -50 6 0 4 10 15 22 25 l21 19 -26 0
c-15 0 -27 -4 -27 -10 0 -5 -5 -10 -10 -10 -6 0 -10 18 -8 41 1 26 -3 43 -12
49 -8 5 -11 12 -8 16 4 3 14 -1 23 -10 22 -21 24 -20 17 6 -3 14 -2 19 6 14
15 -9 15 -1 2 25 -6 10 -7 19 -2 19 5 0 17 -15 26 -32 l17 -33 -5 38 c-6 44
-2 46 19 10 15 -27 15 -27 9 22 -6 47 0 63 8 20 3 -20 21 -45 32 -45 8 0 -3
58 -24 120 -34 103 -33 97 -20 77 6 -9 27 -61 45 -115 19 -53 34 -88 35 -76 0
25 -24 94 -79 227 -42 102 -54 142 -20 72 10 -22 19 -34 19 -28 0 16 -40 122
-74 197 -14 31 -23 62 -20 68 5 8 1 9 -10 5 -11 -4 -15 -3 -10 4 8 14 -30 54
-67 69 -16 7 -29 16 -29 21 0 17 16 9 79 -38 35 -27 73 -55 85 -63 23 -16 100
-99 102 -109 0 -3 4 -14 9 -24 6 -15 10 -16 17 -5 7 10 8 9 4 -4 -7 -24 3 -50
17 -41 6 3 7 1 3 -5 -11 -17 75 -276 86 -260 6 9 7 6 3 -8 -3 -12 -1 -32 4
-45 5 -13 10 -19 11 -14 1 6 8 -10 14 -35 7 -25 18 -44 24 -43 7 2 9 -4 5 -14
-4 -11 -3 -14 5 -9 17 10 15 36 -2 36 -7 0 -16 10 -19 22 -9 31 1 36 12 7 5
-13 10 -18 10 -11 1 7 -3 21 -8 31 -7 13 -5 17 8 17 14 0 17 -9 16 -54 0 -35
-6 -56 -15 -62 -9 -6 -10 -10 -3 -10 8 0 10 -12 7 -37 -4 -28 -3 -34 5 -23 5
9 8 28 7 43 -3 25 0 27 30 27 19 0 34 5 34 10 0 6 5 10 10 10 6 0 10 -11 10
-24 0 -21 5 -24 61 -30 34 -3 88 -6 120 -6 52 0 59 -2 59 -20 0 -19 7 -20 160
-20 136 0 160 -2 160 -15 0 -11 11 -15 40 -15 23 0 40 -5 40 -11 0 -8 18 -10
60 -6 82 9 180 -2 180 -19 0 -10 13 -14 40 -14 l40 0 0 700 0 700 -2000 0
-2000 0 0 -540z m2147 134 c-3 -3 -12 -4 -19 -1 -8 3 -5 6 6 6 11 1 17 -2 13
-5z m-87 -58 c0 -2 -8 -10 -17 -17 -16 -13 -17 -12 -4 4 13 16 21 21 21 13z
m-160 -33 c-1 -5 -12 -21 -26 -38 -22 -25 -24 -26 -14 -6 18 36 40 60 40 44z
m-126 -91 c-8 -17 -19 -34 -25 -37 -11 -7 8 44 23 62 18 22 19 8 2 -25z m816
-92 c6 -11 8 -20 6 -20 -3 0 -10 9 -16 20 -6 11 -8 20 -6 20 3 0 10 -9 16 -20z
m-1356 -86 c3 -8 2 -12 -4 -9 -6 3 -10 10 -10 16 0 14 7 11 14 -7z m364 -104
c0 -9 -3 -7 -8 5 -5 11 -8 29 -8 40 0 16 2 15 8 -5 4 -14 8 -32 8 -40z m-408
46 c0 -3 -4 -8 -10 -11 -5 -3 -10 -1 -10 4 0 6 5 11 10 11 6 0 10 -2 10 -4z
m-57 -56 c3 -11 1 -18 -4 -14 -5 3 -9 12 -9 20 0 20 7 17 13 -6z m27 -20 c-6
-11 -12 -20 -14 -20 -2 0 -2 9 1 20 3 11 9 20 15 20 5 0 4 -9 -2 -20z m-20
-45 c0 -5 -5 -3 -10 5 -5 8 -10 20 -10 25 0 6 5 3 10 -5 5 -8 10 -19 10 -25z
m1709 -10 c0 -5 -4 -3 -9 5 -5 8 -9 22 -9 30 0 16 17 -16 18 -35z m-1405 -37
c19 -36 19 -38 7 -38 -5 0 -11 8 -14 18 -2 9 -8 25 -12 35 -12 30 3 19 19 -15z
m602 -34 c-3 -9 -6 -30 -6 -47 0 -23 -3 -28 -11 -20 -14 14 -3 83 13 83 5 0 7
-7 4 -16z m58 -11 c-4 -16 -11 -37 -15 -48 -7 -18 -8 -18 -8 5 -1 35 10 70 20
70 5 0 6 -12 3 -27z m-118 1 c-3 -9 -6 -32 -6 -52 0 -28 -3 -33 -10 -22 -5 8
-10 32 -10 53 0 27 4 37 16 37 11 0 14 -5 10 -16z m-1363 -1 c-13 -2 -33 -2
-45 0 -13 2 -3 4 22 4 25 0 35 -2 23 -4z m1297 -39 c0 -25 -4 -43 -9 -39 -13
7 -24 62 -16 75 14 23 25 7 25 -36z m-430 -31 c19 -60 39 -203 40 -287 0 -61
-8 -16 -19 99 -7 72 -21 146 -35 187 -13 37 -20 68 -15 68 4 0 18 -30 29 -67z
m372 16 c2 -22 1 -42 -3 -44 -11 -7 -30 46 -24 66 10 32 23 21 27 -22z m-55
-29 c1 -46 -8 -51 -27 -16 -14 27 -8 56 12 56 8 0 14 -15 15 -40z m295 -70
c102 -28 112 -44 22 -35 -93 9 -205 -23 -243 -69 -17 -21 -65 -20 -85 0 -20
20 -20 58 0 75 9 7 37 16 62 21 26 4 67 11 92 16 67 14 74 14 152 -8z m938 5
c0 -8 -9 -15 -20 -15 -11 0 -20 7 -20 15 0 8 9 15 20 15 11 0 20 -7 20 -15z
m-642 -68 c25 -27 21 -36 -39 -80 -42 -30 -52 -25 -62 31 -6 29 -3 35 26 52
41 25 49 25 75 -3z m111 -51 c-9 -8 -10 -7 -5 7 3 10 7 28 7 40 2 16 3 14 6
-7 3 -16 -1 -34 -8 -40z m-528 15 c-13 -11 -30 -17 -42 -14 -12 3 -25 0 -29
-7 -4 -7 -13 -11 -20 -8 -9 3 -8 9 4 21 10 9 22 15 27 12 5 -4 9 -1 9 4 0 6
16 11 37 11 l36 0 -22 -19z m1442 12 c-13 -2 -33 -2 -45 0 -13 2 -3 4 22 4 25
0 35 -2 23 -4z m-1840 -108 c3 -37 2 -51 -3 -35 -8 25 -13 107 -6 99 2 -2 6
-31 9 -64z m397 50 c0 -8 -7 -15 -15 -15 -9 0 -12 6 -9 15 4 8 10 15 15 15 5
0 9 -7 9 -15z m-40 -5 c0 -13 -11 -13 -30 0 -12 8 -11 10 8 10 12 0 22 -4 22
-10z m690 -82 c0 -13 0 -14 -29 32 l-23 35 26 -28 c14 -15 26 -33 26 -39z
m-849 12 c-7 -3 -9 -14 -5 -23 4 -13 1 -17 -14 -17 -34 0 -36 20 -6 52 24 24
30 27 32 12 2 -9 -1 -20 -7 -24z m186 34 c-3 -3 -12 -4 -19 -1 -8 3 -5 6 6 6
11 1 17 -2 13 -5z m-330 -36 c-3 -8 -6 -5 -6 6 -1 11 2 17 5 13 3 -3 4 -12 1
-19z m198 -22 c-4 -20 -13 -36 -21 -36 -17 0 -27 17 -14 25 6 4 16 18 21 32
13 36 22 23 14 -21z m76 17 c8 -9 9 -14 3 -10 -7 4 -11 -3 -11 -19 0 -30 -7
-38 -28 -31 -13 6 -13 10 3 41 9 20 18 36 18 36 1 0 8 -8 15 -17z m55 -25 c-2
-24 -5 -45 -5 -47 -1 -3 -5 -1 -11 5 -6 6 -6 23 1 47 13 50 21 47 15 -5z m60
-35 c-3 -8 -10 -12 -15 -9 -8 6 -5 48 7 76 8 19 16 -46 8 -67z m64 31 c0 -27
-4 -43 -10 -39 -17 11 -11 85 7 85 2 0 3 -21 3 -46z m55 1 c1 -19 -2 -35 -7
-35 -4 0 -8 19 -8 42 0 49 14 43 15 -7z m57 -8 c-6 -22 -6 -22 -13 3 -12 43
-10 58 5 37 8 -10 11 -28 8 -40z m58 21 c0 -16 -3 -19 -11 -11 -6 6 -8 16 -5
22 11 17 16 13 16 -11z m50 12 c0 -5 -2 -10 -4 -10 -3 0 -8 5 -11 10 -3 6 -1
10 4 10 6 0 11 -4 11 -10z m-699 -85 c-5 -38 -7 -97 -5 -130 3 -53 2 -56 -6
-25 -9 33 -4 205 7 223 10 17 11 0 4 -68z m-94 18 c-3 -10 -5 -2 -5 17 0 19 2
27 5 18 2 -10 2 -26 0 -35z m124 -68 c-5 -94 -7 -103 -13 -64 -4 26 -3 73 2
105 6 33 10 63 10 68 0 5 2 7 3 5 2 -2 1 -53 -2 -114z m-94 43 c-2 -13 -4 -5
-4 17 -1 22 1 32 4 23 2 -10 2 -28 0 -40z m38 15 c-4 -21 -10 -67 -14 -103 -7
-52 -9 -57 -10 -24 -2 63 11 164 21 164 4 0 6 -17 3 -37z m-340 -39 c-20 -38
-24 -42 -19 -19 7 33 33 79 40 72 3 -2 -7 -26 -21 -53z m232 -21 c-3 -10 -5
-4 -5 12 0 17 2 24 5 18 2 -7 2 -21 0 -30z m30 -60 c-2 -21 -4 -6 -4 32 0 39
2 55 4 38 2 -18 2 -50 0 -70z m30 -45 c-2 -24 -4 -5 -4 42 0 47 2 66 4 43 2
-24 2 -62 0 -85z m-230 80 c-3 -7 -5 -2 -5 12 0 14 2 19 5 13 2 -7 2 -19 0
-25z m164 -50 c-9 -20 -10 -18 -10 17 0 31 2 36 9 23 6 -10 7 -25 1 -40z
m-319 7 c-2 -19 -6 -35 -8 -35 -2 0 -4 16 -4 35 0 19 4 35 8 35 4 0 6 -16 4
-35z m-85 -27 c-3 -8 -6 -5 -6 6 -1 11 2 17 5 13 3 -3 4 -12 1 -19z m110 -55
c-2 -16 -4 -5 -4 22 0 28 2 40 4 28 2 -13 2 -35 0 -50z m40 -55 c-2 -24 -4 -5
-4 42 0 47 2 66 4 43 2 -24 2 -62 0 -85z m360 45 c-3 -10 -5 -2 -5 17 0 19 2
27 5 18 2 -10 2 -26 0 -35z m-549 -43 c1 -28 -1 -31 -8 -15 -5 11 -8 38 -8 60
0 34 1 36 8 15 4 -14 8 -41 8 -60z m122 13 c0 -81 -5 -79 -14 5 -5 41 -3 62 4
62 6 0 10 -27 10 -67z m-67 -92 c-8 -12 -15 14 -19 71 l-3 63 12 -65 c7 -36
11 -67 10 -69z m534 52 c-2 -16 -4 -5 -4 22 0 28 2 40 4 28 2 -13 2 -35 0 -50z
m-279 -58 c-1 -90 -5 -76 -10 32 -2 40 0 67 4 60 4 -7 7 -48 6 -92z m74 -30
c3 -79 2 -110 -3 -80 -7 51 -12 222 -5 214 2 -2 5 -62 8 -134z m-112 100 c0
-14 -2 -25 -4 -25 -2 0 -6 11 -8 25 -3 14 -1 25 3 25 5 0 9 -11 9 -25z m177
-7 c-3 -8 -6 -5 -6 6 -1 11 2 17 5 13 3 -3 4 -12 1 -19z m-290 -80 c-2 -13 -4
-5 -4 17 -1 22 1 32 4 23 2 -10 2 -28 0 -40z m400 30 c-3 -8 -6 -5 -6 6 -1 11
2 17 5 13 3 -3 4 -12 1 -19z m-410 -163 c-6 -14 -27 91 -26 123 1 15 8 -4 15
-43 8 -38 12 -74 11 -80z m1183 135 c0 -5 -5 -10 -11 -10 -5 0 -7 5 -4 10 3 6
8 10 11 10 2 0 4 -4 4 -10z m-1273 -47 c-3 -10 -5 -2 -5 17 0 19 2 27 5 18 2
-10 2 -26 0 -35z m140 15 c-3 -7 -5 -2 -5 12 0 14 2 19 5 13 2 -7 2 -19 0 -25z
m360 10 c-3 -8 -6 -5 -6 6 -1 11 2 17 5 13 3 -3 4 -12 1 -19z m727 -30 c6 -4
7 -10 3 -14 -10 -10 -37 28 -29 40 3 6 8 3 10 -4 3 -8 10 -18 16 -22z m-1106
-53 c0 -16 -2 -15 -8 5 -4 14 -8 36 -8 50 0 22 1 22 8 -5 4 -16 8 -39 8 -50z
m29 23 c-3 -8 -6 -5 -6 6 -1 11 2 17 5 13 3 -3 4 -12 1 -19z m1024 -8 c5 0 9
-5 9 -11 0 -8 -5 -8 -15 1 -8 7 -14 20 -14 29 1 13 2 13 6 -1 2 -10 9 -18 14
-18z m239 -10 c0 -5 -2 -10 -4 -10 -3 0 -8 5 -11 10 -3 6 -1 10 4 10 6 0 11
-4 11 -10z m-1153 -32 c-3 -8 -6 -5 -6 6 -1 11 2 17 5 13 3 -3 4 -12 1 -19z
m-100 -10 c-3 -8 -6 -5 -6 6 -1 11 2 17 5 13 3 -3 4 -12 1 -19z m1255 -21
c-13 -15 -98 -22 -106 -8 -3 5 1 14 9 21 12 10 22 10 40 2 21 -10 25 -8 30 10
6 18 9 19 23 5 12 -12 13 -19 4 -30z m-1304 -47 c0 -9 -3 -7 -8 5 -5 11 -8 29
-8 40 0 16 2 15 8 -5 4 -14 8 -32 8 -40z m259 28 c-3 -7 -5 -2 -5 12 0 14 2
19 5 13 2 -7 2 -19 0 -25z m915 7 c5 -25 -5 -34 -17 -14 -4 6 -13 8 -21 5 -16
-6 -17 -4 -8 18 10 25 41 19 46 -9z m-1015 -7 c-3 -8 -6 -5 -6 6 -1 11 2 17 5
13 3 -3 4 -12 1 -19z m943 2 c0 -5 -4 -10 -10 -10 -5 0 -10 5 -10 10 0 6 5 10
10 10 6 0 10 -4 10 -10z m-1071 -105 c0 -5 -6 1 -14 15 -8 14 -14 30 -14 35 0
6 6 -1 14 -15 8 -14 14 -29 14 -35z m19 -47 c-6 -18 -28 -21 -28 -4 0 9 7 16
16 16 9 0 14 -5 12 -12z m1002 -15 c0 -10 -4 -14 -8 -8 -4 6 -11 13 -16 18 -5
4 -2 7 7 7 10 0 17 -8 17 -17z m30 -43 c0 -5 -4 -10 -10 -10 -5 0 -10 5 -10
10 0 6 5 10 10 10 6 0 10 -4 10 -10z m60 -41 c0 -5 -7 -9 -15 -9 -15 0 -20 12
-9 23 8 8 24 -1 24 -14z m36 -46 c-11 -11 -17 4 -9 23 7 18 8 18 11 1 2 -10 1
-21 -2 -24z m365 10 c16 -39 -4 -149 -37 -214 -14 -28 -27 -49 -30 -46 -3 2 5
20 16 40 23 38 51 159 40 167 -11 8 -20 80 -9 80 5 0 14 -12 20 -27z m-298 -3
c-3 -11 -10 -23 -16 -27 -7 -4 -8 0 -4 11 4 10 7 22 7 27 0 5 4 9 9 9 5 0 7
-9 4 -20z m254 -25 c10 -31 9 -35 -6 -35 -13 0 -17 8 -17 35 1 45 10 45 23 0z
m-61 -43 c-12 -11 -18 7 -10 30 l8 23 4 -23 c2 -13 1 -26 -2 -30z m30 -144
c-19 -27 -21 -19 -4 18 7 14 14 21 16 15 2 -6 -4 -21 -12 -33z m-1111 -98 c3
-5 2 -10 -4 -10 -5 0 -13 5 -16 10 -3 6 -2 10 4 10 5 0 13 -4 16 -10z m60 -40
c7 -22 6 -23 -9 -11 -9 7 -16 23 -16 34 0 26 15 12 25 -23z m1125 -40 c-17
-32 -22 -19 -7 19 7 20 13 27 15 18 2 -9 -2 -26 -8 -37z m-1185 20 c0 -7 -6
-15 -12 -17 -8 -3 -13 4 -13 17 0 13 5 20 13 18 6 -3 12 -11 12 -18z m165 -22
c0 -7 -4 -19 -9 -27 -11 -17 -25 3 -17 24 7 18 26 20 26 3z m1520 2 c-19 -13
-30 -13 -30 0 0 6 10 10 23 10 18 0 19 -2 7 -10z m-1640 -19 c0 -11 5 -23 10
-26 6 -3 10 -19 10 -35 0 -15 5 -30 12 -32 7 -3 9 -11 4 -24 -8 -18 -9 -17
-19 6 -6 14 -24 42 -39 63 -29 41 -28 67 3 67 12 0 19 -7 19 -19z m200 -40 c0
-12 -29 -35 -36 -28 -11 10 5 37 21 37 8 0 15 -4 15 -9z m1370 2 c-1 -14 -30
-47 -36 -41 -8 8 14 48 26 48 6 0 10 -3 10 -7z m-60 -28 c-7 -8 -17 -15 -22
-15 -6 0 -5 7 2 15 7 8 17 15 22 15 6 0 5 -7 -2 -15z m170 -11 c0 -8 -4 -12
-10 -9 -5 3 -10 10 -10 16 0 5 5 9 10 9 6 0 10 -7 10 -16z m-20 -24 c0 -5 -4
-10 -10 -10 -5 0 -10 5 -10 10 0 6 5 10 10 10 6 0 10 -4 10 -10z m-1497 -19
c7 -27 -3 -34 -19 -13 -17 22 -17 32 0 32 7 0 16 -9 19 -19z m-44 -62 c13 -11
21 -22 18 -26 -4 -3 -13 0 -21 6 -8 7 -20 10 -26 6 -6 -3 -10 3 -10 14 0 26 8
26 39 0z m1137 13 c17 -11 24 -40 11 -46 -7 -2 -2 -5 11 -5 16 -1 22 -7 22
-25 0 -33 -10 -57 -22 -50 -5 3 -4 12 3 20 15 18 3 32 -13 16 -17 -17 -31 -15
-24 4 4 9 1 23 -5 30 -6 7 -8 18 -4 24 3 5 -1 13 -9 16 -9 3 -16 10 -16 15 0
11 31 12 46 1z m-408 -31 c3 -8 -1 -12 -9 -9 -7 2 -15 10 -17 17 -3 8 1 12 9
9 7 -2 15 -10 17 -17z m-743 -32 c11 -17 49 -28 57 -15 5 7 12 4 22 -9 13 -17
13 -20 0 -23 -8 -2 -14 -8 -14 -14 0 -6 -8 -4 -17 4 -10 8 -30 18 -45 22 -19
4 -28 13 -28 26 0 22 15 27 25 9z m186 -78 c21 -24 30 -81 12 -74 -7 3 -13 9
-13 14 0 5 -11 15 -25 21 -16 7 -25 19 -25 35 0 28 29 31 51 4z m489 -108 c0
-24 3 -43 8 -43 4 0 7 -20 7 -45 0 -35 -4 -45 -16 -45 -14 0 -18 14 -22 78 -3
42 -5 95 -5 117 l-1 40 14 -30 c8 -16 14 -49 15 -72z m50 57 c0 -16 -4 -30
-10 -30 -11 0 -14 43 -3 53 11 12 13 8 13 -23z m677 8 c-3 -8 -6 -5 -6 6 -1
11 2 17 5 13 3 -3 4 -12 1 -19z m-1327 -28 c12 -8 9 -10 -12 -7 -15 1 -30 6
-34 10 -11 11 29 8 46 -3z m-20 -146 c0 -9 -44 14 -48 25 -3 8 5 7 22 -4 14
-10 26 -19 26 -21z m-440 -24 c0 -5 -4 -10 -9 -10 -6 0 -13 5 -16 10 -3 6 1
10 9 10 9 0 16 -4 16 -10z m-34 -35 c16 -14 32 -25 37 -25 4 0 7 -9 7 -20 0
-13 -7 -20 -20 -20 -11 0 -20 7 -20 15 0 9 -11 20 -25 25 -24 9 -32 29 -18 43
9 9 6 10 39 -18z m-196 -59 c0 -19 -5 -22 -30 -21 -17 1 -36 7 -42 13 -12 12
-9 13 17 12 3 -1 13 6 21 15 19 19 34 11 34 -19z m85 -16 c3 -5 -3 -10 -14
-10 -12 0 -21 5 -21 10 0 6 6 10 14 10 8 0 18 -4 21 -10z m193 -79 c3 -8 -1
-12 -9 -9 -7 2 -15 10 -17 17 -3 8 1 12 9 9 7 -2 15 -10 17 -17z m-378 -11 c0
-5 -23 -16 -52 -25 -63 -18 -58 -18 -58 0 0 9 9 15 24 15 14 0 28 5 31 10 8
13 55 13 55 0z m1944 -78 c2 -4 -11 -12 -30 -18 -19 -6 -34 -10 -34 -8 0 1 3
9 6 18 6 16 49 22 58 8z m-637 -46 c4 -7 15 -16 23 -19 8 -3 1 -6 -17 -6 -26
-1 -31 3 -30 19 1 23 12 26 24 6z m473 -36 c0 -5 -7 -10 -15 -10 -8 0 -15 5
-15 10 0 6 7 10 15 10 8 0 15 -4 15 -10z m-443 -7 c-4 -3 -2 -12 5 -20 9 -11
8 -17 -3 -28 -12 -13 -18 -11 -43 9 -35 27 -28 46 16 46 17 0 28 -3 25 -7z
m700 -19 c12 -27 8 -50 -14 -72 -11 -11 -13 -11 -13 0 0 10 -2 10 -9 -1 -12
-19 -44 -23 -64 -8 -9 7 -23 30 -32 52 -14 36 -14 38 0 20 9 -11 22 -20 30
-20 8 0 21 -9 29 -20 12 -16 16 -17 30 -6 9 8 16 28 16 47 0 40 11 44 27 8z
m-1949 -16 c-2 -6 -10 -14 -16 -16 -7 -2 -10 2 -6 12 7 18 28 22 22 4z m1052
-15 c0 -5 -4 -14 -9 -22 -11 -17 -32 -5 -24 14 5 15 33 21 33 8z m40 -28 c0
-16 -6 -25 -15 -25 -18 0 -20 21 -3 38 17 17 18 16 18 -13z m128 -53 c4 -26
-5 -28 -37 -6 -18 13 -20 18 -10 25 22 14 44 6 47 -19z m572 14 c0 -8 -13 -16
-29 -18 -20 -3 -27 -1 -24 8 4 11 19 19 46 23 4 0 7 -5 7 -13z m19 -122 c14
-31 8 -55 -18 -71 -16 -10 -22 -9 -33 4 -11 14 -11 16 4 10 22 -8 46 19 30 35
-14 14 -16 48 -4 48 5 0 14 -12 21 -26z m-1378 4 c0 -10 2 -10 6 0 2 6 9 12
14 12 14 0 11 -28 -3 -33 -16 -5 -48 10 -48 23 0 15 30 12 31 -2z m-71 -12 c0
-11 -19 -15 -25 -6 -3 5 1 10 9 10 9 0 16 -2 16 -4z m220 -32 c0 -8 -4 -12
-10 -9 -5 3 -10 10 -10 16 0 5 5 9 10 9 6 0 10 -7 10 -16z"/>
<path d="M2600 3373 c0 -4 21 -56 46 -116 28 -66 44 -117 40 -130 -3 -12 3
-40 14 -62 10 -22 19 -33 19 -25 1 13 2 13 11 0 5 -8 10 -10 10 -5 0 6 -5 17
-10 25 -9 13 -10 13 -10 0 0 -13 -1 -13 -10 0 -5 8 -10 22 -10 30 0 13 1 13
10 0 13 -21 12 -12 -5 35 -8 22 -14 47 -14 55 -1 13 0 13 10 0 8 -11 8 -9 3
10 -5 14 -8 35 -9 47 0 11 -3 19 -7 17 -3 -2 -8 -1 -11 3 -2 5 -2 2 0 -5 14
-56 10 -59 -12 -8 -27 64 -33 96 -10 56 16 -29 20 -19 4 11 -5 11 -15 16 -21
13 -8 -5 -9 -1 -5 10 4 10 3 15 -3 11 -6 -3 -10 1 -10 9 0 8 -4 18 -10 21 -5
3 -10 3 -10 -2z"/>
<path d="M1501 3274 c0 -11 3 -14 6 -6 3 7 2 16 -1 19 -3 4 -6 -2 -5 -13z"/>
<path d="M1291 3084 c1 -21 5 -50 9 -64 5 -16 6 -2 3 35 -7 69 -13 86 -12 29z"/>
<path d="M1342 3085 c0 -16 2 -22 5 -12 2 9 2 23 0 30 -3 6 -5 -1 -5 -18z"/>
<path d="M1272 3055 c0 -16 2 -22 5 -12 2 9 2 23 0 30 -3 6 -5 -1 -5 -18z"/>
<path d="M1221 3044 c0 -11 3 -14 6 -6 3 7 2 16 -1 19 -3 4 -6 -2 -5 -13z"/>
<path d="M1251 3024 c0 -11 3 -14 6 -6 3 7 2 16 -1 19 -3 4 -6 -2 -5 -13z"/>
<path d="M1281 2994 c0 -11 3 -14 6 -6 3 7 2 16 -1 19 -3 4 -6 -2 -5 -13z"/>
<path d="M2731 2995 c0 -5 9 -28 20 -50 10 -22 16 -29 13 -15 -7 28 -33 80
-33 65z"/>
<path d="M1060 2945 c0 -8 5 -15 10 -15 6 0 10 7 10 15 0 8 -4 15 -10 15 -5 0
-10 -7 -10 -15z"/>
<path d="M1180 2953 c0 -5 8 -17 17 -28 14 -18 15 -18 9 -2 -3 10 -6 23 -6 28
0 5 -4 9 -10 9 -5 0 -10 -3 -10 -7z"/>
<path d="M2812 2885 c0 -16 2 -22 5 -12 2 9 2 23 0 30 -3 6 -5 -1 -5 -18z"/>
<path d="M2783 2873 c1 -18 6 -28 10 -24 4 4 3 18 -2 32 -9 23 -9 22 -8 -8z"/>
<path d="M1066 2865 c-3 -9 -6 -22 -5 -28 0 -7 5 -1 10 12 5 13 8 26 5 28 -2
2 -6 -3 -10 -12z"/>
<path d="M2828 2821 c-15 -15 -15 -18 3 -40 24 -30 24 -53 -1 -76 -11 -10 -20
-26 -20 -36 0 -10 -4 -20 -9 -24 -6 -3 -9 -22 -8 -43 3 -34 6 -37 36 -40 18
-2 39 2 47 9 11 9 14 8 14 -5 0 -9 -5 -16 -11 -16 -5 0 -7 -5 -3 -12 5 -8 13
0 22 22 18 43 25 173 9 163 -6 -4 -8 1 -5 14 5 17 2 20 -16 15 -17 -4 -19 -2
-8 9 18 20 15 28 -10 21 -20 -5 -21 -3 -10 10 11 14 10 16 -10 10 -21 -5 -22
-4 -9 12 18 22 10 28 -11 7z"/>
<path d="M1051 2804 c0 -11 3 -14 6 -6 3 7 2 16 -1 19 -3 4 -6 -2 -5 -13z"/>
<path d="M1182 2790 c0 -19 2 -27 5 -17 2 9 2 25 0 35 -3 9 -5 1 -5 -18z"/>
<path d="M1236 2785 c3 -22 9 -79 12 -127 4 -47 10 -90 14 -94 11 -11 -3 154
-18 211 -11 42 -13 44 -8 10z"/>
<path d="M1620 2781 c0 -5 5 -13 10 -16 6 -3 10 -2 10 4 0 5 -4 13 -10 16 -5
3 -10 2 -10 -4z"/>
<path d="M1162 2760 c0 -14 2 -19 5 -12 2 6 2 18 0 25 -3 6 -5 1 -5 -13z"/>
<path d="M1193 2715 c0 -22 2 -30 4 -17 2 12 2 30 0 40 -3 9 -5 -1 -4 -23z"/>
<path d="M1172 2700 c0 -19 2 -27 5 -17 2 9 2 25 0 35 -3 9 -5 1 -5 -18z"/>
<path d="M1201 2630 c0 -25 3 -51 8 -59 5 -8 7 5 4 35 -6 68 -11 77 -12 24z"/>
<path d="M2940 2661 c0 -6 4 -13 10 -16 6 -3 7 1 4 9 -7 18 -14 21 -14 7z"/>
<path d="M2696 2605 c-11 -30 -6 -40 11 -22 12 12 14 20 6 28 -7 7 -12 6 -17
-6z"/>
<path d="M1182 2575 c0 -16 2 -22 5 -12 2 9 2 23 0 30 -3 6 -5 -1 -5 -18z"/>
<path d="M2727 2586 c-4 -10 -7 -25 -6 -34 0 -11 4 -9 10 7 5 13 8 29 6 35 -2
5 -6 2 -10 -8z"/>
<path d="M2926 2573 c-6 -14 -5 -15 5 -6 7 7 10 15 7 18 -3 3 -9 -2 -12 -12z"/>
<path d="M2940 2541 c0 -6 4 -13 10 -16 6 -3 7 1 4 9 -7 18 -14 21 -14 7z"/>
<path d="M2723 2425 c0 -55 0 -57 8 -23 5 21 5 48 0 60 -6 17 -8 7 -8 -37z"/>
<path d="M1240 1660 c0 -5 6 -10 13 -10 8 0 7 -4 -3 -11 -12 -9 -12 -10 3 -5
10 3 23 6 28 6 4 0 6 7 3 15 -7 17 -44 21 -44 5z"/>
<path d="M2803 1620 c0 -30 2 -43 4 -27 2 15 2 39 0 55 -2 15 -4 2 -4 -28z"/>
<path d="M2822 1625 c0 -16 2 -22 5 -12 2 9 2 23 0 30 -3 6 -5 -1 -5 -18z"/>
<path d="M1102 1415 c0 -16 2 -22 5 -12 2 9 2 23 0 30 -3 6 -5 -1 -5 -18z"/>
<path d="M1350 1288 c1 -26 26 -65 36 -55 8 7 -14 65 -27 73 -5 3 -9 -5 -9
-18z"/>
<path d="M1422 1198 c1 -30 32 -78 43 -66 7 7 -25 98 -35 98 -5 0 -8 -14 -8
-32z"/>
<path d="M1397 1199 c7 -7 15 -10 18 -7 3 3 -2 9 -12 12 -14 6 -15 5 -6 -5z"/>
<path d="M1460 1080 c0 -12 26 -31 33 -23 12 11 7 21 -13 26 -11 3 -20 2 -20
-3z"/>
<path d="M3290 1086 c0 -2 8 -10 18 -17 15 -13 16 -12 3 4 -13 16 -21 21 -21
13z"/>
<path d="M1520 986 c0 -2 7 -7 16 -10 8 -3 12 -2 9 4 -6 10 -25 14 -25 6z"/>
<path d="M1110 770 c-8 -5 -11 -12 -8 -16 10 -9 38 3 38 16 0 12 -10 13 -30 0z"/>
<path d="M704 740 l-39 -18 30 -2 c17 -1 35 -1 40 0 6 2 18 3 28 4 22 0 22 8
-1 23 -15 9 -27 7 -58 -7z"/>
<path d="M3038 620 c-15 -4 -30 -5 -34 -1 -10 9 38 -60 54 -77 6 -7 12 -21 12
-30 0 -14 2 -15 9 -3 6 10 5 23 -1 35 -6 12 -11 22 -10 24 8 11 -1 20 -15 15
-17 -7 -17 -6 0 20 9 15 16 27 15 26 -2 0 -15 -4 -30 -9z"/>
<path d="M2400 571 c0 -25 6 -31 38 -42 39 -14 62 -19 62 -15 0 12 -41 46 -55
46 -9 0 -19 9 -22 20 -8 30 -23 24 -23 -9z"/>
<path d="M693 578 c-13 -6 -23 -18 -23 -27 0 -10 3 -12 8 -5 4 5 18 18 32 27
27 19 17 22 -17 5z"/>
<path d="M635 560 c-3 -5 -1 -10 4 -10 6 0 11 5 11 10 0 6 -2 10 -4 10 -3 0
-8 -4 -11 -10z"/>
<path d="M3103 514 c-1 -19 3 -34 8 -34 11 0 12 57 2 63 -5 3 -9 -10 -10 -29z"/>
<path d="M2402 498 c-12 -15 -6 -102 9 -129 18 -34 28 -20 13 17 -14 33 -14
35 2 32 10 -2 23 -19 30 -38 12 -35 13 -34 18 25 0 11 -9 28 -21 38 -13 10
-22 21 -22 25 6 38 -9 53 -29 30z"/>
<path d="M603 457 c-29 -22 -50 -43 -48 -45 6 -6 105 68 105 79 0 12 1 13 -57
-34z"/>
<path d="M445 480 c-13 -6 -15 -9 -5 -9 8 0 22 4 30 9 18 12 2 12 -25 0z"/>
<path d="M760 480 c14 -4 19 -8 13 -9 -7 -1 -34 -16 -60 -34 -52 -37 -75 -48
-112 -53 -22 -2 -128 -51 -141 -64 -16 -16 -75 -42 -117 -51 -26 -5 -65 -14
-86 -18 -23 -5 -54 -23 -76 -45 -20 -20 -42 -36 -48 -36 -5 0 -23 -18 -38 -41
-16 -22 -37 -45 -48 -51 -16 -8 -17 -12 -6 -19 19 -12 42 -11 34 0 -3 5 9 20
27 32 18 13 57 43 86 66 58 47 102 73 137 79 12 2 36 11 51 19 16 8 35 15 42
15 7 0 15 7 19 16 3 8 12 13 21 9 8 -3 20 -1 26 4 11 9 167 91 173 91 2 0 3
-11 3 -25 0 -28 -69 -81 -125 -96 -24 -7 -32 -14 -28 -24 7 -21 -13 -43 -48
-50 -16 -4 -29 -11 -29 -17 0 -6 -9 -8 -21 -5 -15 4 -23 0 -26 -12 -5 -21 -79
-66 -87 -53 -8 13 36 51 91 82 55 30 70 54 26 44 -44 -11 -72 -28 -148 -89
-84 -67 -137 -97 -162 -89 -14 5 -15 4 -4 -4 12 -9 12 -13 2 -26 -17 -20 -4
-21 16 -1 18 18 39 10 23 -9 -8 -10 5 -13 61 -12 39 0 66 2 60 4 -9 3 -9 7 0
18 10 12 6 13 -20 8 -20 -4 -31 -3 -31 5 0 6 6 11 13 11 6 0 48 16 91 35 44
19 82 33 84 30 2 -2 -5 -14 -17 -26 -12 -13 -21 -28 -21 -35 0 -7 -10 -16 -22
-20 -13 -4 -32 -13 -43 -20 -17 -12 17 -14 238 -14 l257 0 0 36 c0 19 -7 90
-16 156 -8 67 -13 130 -11 140 6 21 6 21 -28 8 -37 -14 -51 -2 -27 24 11 11
27 35 36 53 9 18 26 38 37 44 17 9 19 13 8 20 -8 5 -23 8 -34 8 -16 -1 -16 -2
5 -9z m-120 -244 c0 -14 -6 -31 -13 -38 -7 -7 -16 -21 -20 -30 -3 -9 -16 -24
-29 -32 -19 -13 -30 -13 -60 -4 -37 11 -43 38 -9 38 9 0 24 7 34 15 11 7 24
12 31 9 7 -3 23 7 36 22 l25 26 -25 -7 c-24 -7 -24 -7 -5 9 28 21 35 20 35 -8z
m-90 -10 c0 -8 -4 -18 -10 -21 -5 -3 -10 3 -10 14 0 12 5 21 10 21 6 0 10 -6
10 -14z m-109 -115 c-6 -11 -11 -33 -11 -50 0 -28 -11 -46 -22 -36 -6 6 17 99
28 117 13 20 17 -8 5 -31z m26 -3 c-3 -7 -5 -2 -5 12 0 14 2 19 5 13 2 -7 2
-19 0 -25z m31 -47 c3 -8 -1 -12 -9 -9 -7 2 -15 10 -17 17 -3 8 1 12 9 9 7 -2
15 -10 17 -17z"/>
<path d="M2465 483 c11 -3 26 -10 34 -17 11 -9 13 -8 9 4 -2 8 -18 16 -34 17
-18 1 -22 0 -9 -4z"/>
<path d="M2335 470 c-3 -5 1 -10 9 -10 9 0 16 5 16 10 0 6 -4 10 -9 10 -6 0
-13 -4 -16 -10z"/>
<path d="M500 450 c-8 -5 -12 -11 -9 -14 3 -3 14 1 25 9 21 16 8 20 -16 5z"/>
<path d="M2513 435 c4 -8 2 -17 -4 -20 -5 -4 -6 -11 -3 -17 4 -6 10 -5 15 3
12 20 11 49 -2 49 -6 0 -9 -7 -6 -15z"/>
<path d="M315 420 c-3 -5 -2 -10 4 -10 5 0 13 5 16 10 3 6 2 10 -4 10 -5 0
-13 -4 -16 -10z"/>
<path d="M3314 401 c-10 -10 -2 -19 27 -32 28 -11 33 -10 45 6 7 10 11 22 7
28 -3 5 -9 3 -14 -4 -5 -8 -9 -9 -9 -4 0 10 -47 14 -56 6z"/>
<path d="M433 368 c-13 -6 -23 -15 -23 -20 0 -5 11 -1 25 8 37 24 35 30 -2 12z"/>
<path d="M3396 364 c-9 -23 -8 -24 14 -24 11 0 20 4 20 10 0 5 -7 7 -15 4 -11
-5 -13 -2 -9 10 3 9 4 16 1 16 -3 0 -8 -7 -11 -16z"/>
<path d="M298 353 c7 -3 16 -2 19 1 4 3 -2 6 -13 5 -11 0 -14 -3 -6 -6z"/>
<path d="M370 345 c-8 -9 -8 -15 -2 -15 12 0 26 19 19 26 -2 2 -10 -2 -17 -11z"/>
<path d="M270 336 c0 -2 7 -7 16 -10 8 -3 12 -2 9 4 -6 10 -25 14 -25 6z"/>
<path d="M325 330 c3 -5 8 -10 11 -10 2 0 4 5 4 10 0 6 -5 10 -11 10 -5 0 -7
-4 -4 -10z"/>
<path d="M3350 310 c14 -10 36 -22 49 -25 14 -4 31 -14 38 -23 8 -12 12 -13
13 -4 0 8 5 10 13 6 8 -5 8 -2 -2 9 -7 9 -24 17 -37 17 -13 0 -28 9 -34 20 -7
13 -21 20 -38 20 l-27 0 25 -20z"/>
<path d="M3261 292 c-8 -14 -1 -22 38 -44 66 -37 87 -22 39 26 -40 40 -62 45
-77 18z"/>
<path d="M2460 280 c0 -5 5 -10 11 -10 5 0 7 5 4 10 -3 6 -8 10 -11 10 -2 0
-4 -4 -4 -10z"/>
<path d="M3094 255 c-3 -8 -4 -20 -2 -27 3 -7 7 -1 10 15 6 29 1 36 -8 12z"/>
<path d="M455 239 c-4 -6 -4 -13 0 -17 4 -4 10 -1 12 6 3 6 9 10 14 6 5 -3 9
0 9 5 0 14 -27 14 -35 0z"/>
<path d="M2541 182 c0 -29 -5 -51 -10 -48 -13 9 0 -37 16 -52 7 -7 13 -23 13
-35 0 -35 14 -47 53 -45 36 1 47 11 27 23 -5 3 -11 18 -11 33 -1 17 -3 21 -6
9 -6 -23 -23 -22 -23 3 0 10 -9 28 -21 39 -13 12 -24 39 -29 73 l-8 53 -1 -53z"/>
<path d="M3212 214 c-27 -18 -20 -34 14 -34 21 0 23 3 14 19 -7 14 -6 21 3 24
6 3 7 6 2 6 -6 1 -21 -6 -33 -15z"/>
<path d="M3192 145 c12 -14 26 -25 32 -25 5 0 -1 11 -14 25 -13 14 -27 25 -32
25 -4 0 2 -11 14 -25z"/>
<path d="M3450 154 c8 -10 15 -20 16 -22 1 -2 5 1 8 7 4 5 -4 15 -16 22 -22
12 -22 11 -8 -7z"/>
<path d="M3140 146 c0 -2 7 -9 15 -16 12 -10 15 -10 15 4 0 9 -7 16 -15 16 -8
0 -15 -2 -15 -4z"/>
<path d="M3240 120 c0 -5 5 -10 11 -10 5 0 7 5 4 10 -3 6 -8 10 -11 10 -2 0
-4 -4 -4 -10z"/>
<path d="M3640 118 c0 -9 5 -20 10 -23 13 -8 13 5 0 25 -8 13 -10 13 -10 -2z"/>
<path d="M3300 80 c0 -5 10 -10 23 -10 18 0 19 2 7 10 -19 13 -30 13 -30 0z"/>
<path d="M3386 42 c-4 -7 -6 -12 -4 -12 2 0 18 -4 36 -9 20 -6 30 -6 27 0 -4
5 -15 9 -25 9 -10 0 -20 5 -22 12 -3 9 -6 9 -12 0z"/>
<path d="M57 20 c-3 -11 -1 -20 4 -20 5 0 9 9 9 20 0 11 -2 20 -4 20 -2 0 -6
-9 -9 -20z"/>
<path d="M2660 26 c0 -15 18 -31 26 -23 7 7 -7 37 -17 37 -5 0 -9 -6 -9 -14z"/>
</g>
</svg>
