<svg width="24" height="24" viewBox="0 0 24 24" fill="none" xmlns="http://www.w3.org/2000/svg">
<path fill-rule="evenodd" clip-rule="evenodd" d="M12 0C8.73999 0 8.33301 0.015 7.053 0.072C5.775 0.132 4.905 0.333 4.14 0.63C3.351 0.936 2.68101 1.347 2.01399 2.01399C1.347 2.68101 0.935001 3.35001 0.63 4.14C0.333 4.905 0.131 5.775 0.072 7.053C0.012 8.33301 0 8.73999 0 12C0 15.26 0.015 15.667 0.072 16.947C0.132 18.2241 0.333 19.0951 0.63 19.86C0.936 20.6481 1.347 21.319 2.01399 21.9861C2.68101 22.6521 3.35001 23.065 4.14 23.37C4.90599 23.6661 5.77599 23.869 7.053 23.928C8.33301 23.988 8.73999 24 12 24C15.26 24 15.667 23.9849 16.947 23.928C18.2241 23.868 19.0951 23.6661 19.86 23.37C20.6481 23.064 21.319 22.6521 21.9861 21.9861C22.6521 21.319 23.065 20.651 23.37 19.86C23.6661 19.0951 23.869 18.2241 23.928 16.947C23.988 15.667 24 15.26 24 12C24 8.73999 23.9849 8.33301 23.928 7.053C23.868 5.77599 23.6661 4.90401 23.37 4.14C23.064 3.351 22.6521 2.68101 21.9861 2.01399C21.319 1.347 20.651 0.935001 19.86 0.63C19.0951 0.333 18.2241 0.131 16.947 0.072C15.667 0.012 15.26 0 12 0ZM18.4061 7.03495C19.2 7.03495 19.8461 6.38995 19.8461 5.59495C19.8461 4.80094 19.199 4.15495 18.4061 4.15594C17.6121 4.15594 16.966 4.80094 16.966 5.59495C16.966 6.38895 17.611 7.03495 18.4061 7.03495ZM5.83803 11.9999C5.83803 8.59795 8.59503 5.83795 12 5.83795C15.402 5.83795 18.162 8.59495 18.162 11.9999C18.162 15.4019 15.405 18.162 12 18.162C8.59803 18.162 5.83803 15.4049 5.83803 11.9999ZM12 16.0001C9.79005 16.0001 8.00004 14.2101 8.00004 12.0001C8.00004 9.79006 9.79005 8.00006 12 8.00006C14.21 8.00006 16 9.79006 16 12.0001C16 14.2101 14.21 16.0001 12 16.0001Z" fill="white"/>
</svg>
