<svg width="32" height="32" viewBox="0 0 32 32" fill="none" xmlns="http://www.w3.org/2000/svg">
<rect opacity="0.2" width="32" height="32" rx="4" fill="white"/>
<g clip-path="url(#clip0_372_277)">
<path d="M26.8126 4L17.437 11.5L19.1805 7.08L26.8126 4Z" fill="#E17726" stroke="#E17726" stroke-width="0.25" stroke-linecap="round" stroke-linejoin="round"/>
<path d="M5.18701 4L14.4792 11.57L12.8192 7.08L5.18701 4Z" fill="#E27625" stroke="#E27625" stroke-width="0.25" stroke-linecap="round" stroke-linejoin="round"/>
<path d="M23.4374 21.3899L20.9429 25.5099L26.2844 27.0999L27.8146 21.48L23.4374 21.3899Z" fill="#E27625" stroke="#E27625" stroke-width="0.25" stroke-linecap="round" stroke-linejoin="round"/>
<path d="M4.19482 21.48L5.71568 27.0999L11.048 25.5099L8.56268 21.3899L4.19482 21.48Z" fill="#E27625" stroke="#E27625" stroke-width="0.25" stroke-linecap="round" stroke-linejoin="round"/>
<path d="M10.7606 14.43L9.27686 16.85L14.5628 17.11L14.3866 10.96L10.7606 14.43Z" fill="#E27625" stroke="#E27625" stroke-width="0.25" stroke-linecap="round" stroke-linejoin="round"/>
<path d="M21.2391 14.43L17.5576 10.89L17.437 17.11L22.7229 16.85L21.2391 14.43Z" fill="#E27625" stroke="#E27625" stroke-width="0.25" stroke-linecap="round" stroke-linejoin="round"/>
<path d="M11.0479 25.51L14.2472 23.84L11.493 21.52L11.0479 25.51Z" fill="#E27625" stroke="#E27625" stroke-width="0.25" stroke-linecap="round" stroke-linejoin="round"/>
<path d="M17.7529 23.84L20.943 25.51L20.5071 21.52L17.7529 23.84Z" fill="#E27625" stroke="#E27625" stroke-width="0.25" stroke-linecap="round" stroke-linejoin="round"/>
<path d="M20.943 25.5101L17.7529 23.8401L18.0126 26.0801L17.9847 27.0301L20.943 25.5101Z" fill="#D5BFB2" stroke="#D5BFB2" stroke-width="0.25" stroke-linecap="round" stroke-linejoin="round"/>
<path d="M11.0479 25.5101L14.0154 27.0301L13.9969 26.0801L14.2472 23.8401L11.0479 25.5101Z" fill="#D5BFB2" stroke="#D5BFB2" stroke-width="0.25" stroke-linecap="round" stroke-linejoin="round"/>
<path d="M14.0712 20.0399L11.4189 19.2L13.2922 18.2699L14.0712 20.0399Z" fill="#233447" stroke="#233447" stroke-width="0.25" stroke-linecap="round" stroke-linejoin="round"/>
<path d="M17.9287 20.0399L18.7077 18.2699L20.5903 19.2L17.9287 20.0399Z" fill="#233447" stroke="#233447" stroke-width="0.25" stroke-linecap="round" stroke-linejoin="round"/>
<path d="M11.0478 25.5099L11.5115 21.3899L8.5625 21.48L11.0478 25.5099Z" fill="#CC6228" stroke="#CC6228" stroke-width="0.25" stroke-linecap="round" stroke-linejoin="round"/>
<path d="M20.4883 21.3899L20.9427 25.5099L23.4373 21.48L20.4883 21.3899Z" fill="#CC6228" stroke="#CC6228" stroke-width="0.25" stroke-linecap="round" stroke-linejoin="round"/>
<path d="M22.7229 16.8499L17.437 17.1099L17.9285 20.0399L18.7075 18.2699L20.59 19.1999L22.7229 16.8499Z" fill="#CC6228" stroke="#CC6228" stroke-width="0.25" stroke-linecap="round" stroke-linejoin="round"/>
<path d="M11.419 19.1999L13.2923 18.2699L14.0713 20.0399L14.5628 17.1099L9.27686 16.8499L11.419 19.1999Z" fill="#CC6228" stroke="#CC6228" stroke-width="0.25" stroke-linecap="round" stroke-linejoin="round"/>
<path d="M9.27734 16.8499L11.4937 21.5199L11.4195 19.1999L9.27734 16.8499Z" fill="#E27525" stroke="#E27525" stroke-width="0.25" stroke-linecap="round" stroke-linejoin="round"/>
<path d="M20.5903 19.1999L20.5068 21.5199L22.7232 16.8499L20.5903 19.1999Z" fill="#E27525" stroke="#E27525" stroke-width="0.25" stroke-linecap="round" stroke-linejoin="round"/>
<path d="M14.5628 17.11L14.0713 20.04L14.6926 23.5L14.8317 18.94L14.5628 17.11Z" fill="#E27525" stroke="#E27525" stroke-width="0.25" stroke-linecap="round" stroke-linejoin="round"/>
<path d="M17.4374 17.11L17.1777 18.9301L17.3076 23.5L17.9289 20.04L17.4374 17.11Z" fill="#E27525" stroke="#E27525" stroke-width="0.25" stroke-linecap="round" stroke-linejoin="round"/>
<path d="M17.9285 20.0401L17.3071 23.5L17.7523 23.84L20.5065 21.52L20.59 19.2L17.9285 20.0401Z" fill="#F5841F" stroke="#F5841F" stroke-width="0.25" stroke-linecap="round" stroke-linejoin="round"/>
<path d="M11.4189 19.2L11.4932 21.52L14.2474 23.84L14.6925 23.5L14.0712 20.0401L11.4189 19.2Z" fill="#F5841F" stroke="#F5841F" stroke-width="0.25" stroke-linecap="round" stroke-linejoin="round"/>
<path d="M17.9845 27.0301L18.0123 26.0801L17.7712 25.8601H14.2287L13.9969 26.0801L14.0154 27.0301L11.0479 25.5101L12.0865 26.4301L14.1916 28.0001H17.799L19.9134 26.4301L20.9427 25.5101L17.9845 27.0301Z" fill="#C0AC9D" stroke="#C0AC9D" stroke-width="0.25" stroke-linecap="round" stroke-linejoin="round"/>
<path d="M17.7529 23.84L17.3077 23.5H14.6926L14.2475 23.84L13.9971 26.08L14.2289 25.86H17.7714L18.0126 26.08L17.7529 23.84Z" fill="#161616" stroke="#161616" stroke-width="0.25" stroke-linecap="round" stroke-linejoin="round"/>
<path d="M27.2119 11.99L28.0002 7.85L26.8132 4L17.7529 11.25L21.2397 14.43L26.164 15.98L27.2491 14.61L26.7761 14.24L27.5272 13.5L26.9523 13.02L27.7035 12.4L27.2119 11.99Z" fill="#763E1A" stroke="#763E1A" stroke-width="0.25" stroke-linecap="round" stroke-linejoin="round"/>
<path d="M4 7.85L4.79753 11.99L4.28748 12.4L5.04791 13.02L4.47295 13.5L5.22411 14.24L4.75116 14.61L5.83617 15.98L10.7605 14.43L14.2473 11.25L5.18702 4L4 7.85Z" fill="#763E1A" stroke="#763E1A" stroke-width="0.25" stroke-linecap="round" stroke-linejoin="round"/>
<path d="M26.1637 15.9799L21.2394 14.4299L22.7232 16.8499L20.5068 21.5199L23.4373 21.4799H27.8144L26.1637 15.9799Z" fill="#F5841F" stroke="#F5841F" stroke-width="0.25" stroke-linecap="round" stroke-linejoin="round"/>
<path d="M10.7605 14.4299L5.83624 15.9799L4.19482 21.4799H8.56268L11.4931 21.5199L9.27674 16.8499L10.7605 14.4299Z" fill="#F5841F" stroke="#F5841F" stroke-width="0.25" stroke-linecap="round" stroke-linejoin="round"/>
<path d="M17.4371 17.1101L17.7524 11.25L19.1805 7.08002H12.8188L14.247 11.25L14.5623 17.1101L14.6828 18.9501L14.6921 23.5001H17.3072L17.3165 18.9501L17.4371 17.1101Z" fill="#F5841F" stroke="#F5841F" stroke-width="0.25" stroke-linecap="round" stroke-linejoin="round"/>
</g>
<defs>
<clipPath id="clip0_372_277">
<rect width="24" height="24" fill="white" transform="translate(4 4)"/>
</clipPath>
</defs>
</svg>
