<svg width="32" height="32" viewBox="0 0 32 32" fill="none" xmlns="http://www.w3.org/2000/svg">
<rect opacity="0.2" width="32" height="32" rx="4" fill="white"/>
<path d="M8.45784 11.1925C12.8055 6.93582 19.8545 6.93582 24.2021 11.1925L24.7254 11.7048C24.9428 11.9177 24.9428 12.2628 24.7254 12.4756L22.9354 14.2281C22.8268 14.3345 22.6505 14.3345 22.5418 14.2281L21.8218 13.5231C18.7888 10.5535 13.8712 10.5535 10.8382 13.5231L10.0671 14.2781C9.95838 14.3845 9.78215 14.3845 9.67346 14.2781L7.88353 12.5256C7.66615 12.3128 7.66615 11.9677 7.88353 11.7548L8.45784 11.1925ZM27.9039 14.8169L29.4969 16.3766C29.7143 16.5894 29.7143 16.9345 29.4969 17.1473L22.3138 24.1803C22.0964 24.3932 21.744 24.3932 21.5266 24.1803C21.5266 24.1803 21.5266 24.1803 21.5266 24.1803L16.4284 19.1888C16.3741 19.1356 16.286 19.1356 16.2316 19.1888C16.2316 19.1888 16.2316 19.1888 16.2316 19.1888L11.1336 24.1803C10.9162 24.3932 10.5638 24.3932 10.3464 24.1803C10.3464 24.1803 10.3464 24.1803 10.3464 24.1803L3.16304 17.1473C2.94565 16.9344 2.94565 16.5893 3.16304 16.3765L4.75608 14.8168C4.97346 14.604 5.32591 14.604 5.54329 14.8168L10.6415 19.8084C10.6959 19.8616 10.784 19.8616 10.8383 19.8084C10.8383 19.8084 10.8383 19.8084 10.8383 19.8084L15.9363 14.8168C16.1537 14.6039 16.5061 14.6039 16.7235 14.8168C16.7235 14.8168 16.7235 14.8168 16.7235 14.8168L21.8217 19.8084C21.8761 19.8616 21.9642 19.8616 22.0185 19.8084L27.1167 14.8169C27.334 14.604 27.6865 14.604 27.9039 14.8169Z" fill="#3B99FC"/>
</svg>
